<?xml version="1.0" encoding="UTF-8"?><svg id="_レイヤー_1" xmlns="http://www.w3.org/2000/svg" viewBox="0 0 266.93 265.68"><defs><style>.cls-1,.cls-2{fill:#fff;}.cls-2{stroke:#fff;stroke-miterlimit:10;}</style></defs><circle class="cls-2" cx="132.54" cy="133.07" r="33.44" transform="translate(-20.04 242.58) rotate(-80.78)"/><path class="cls-1" d="M92.48,130.65s-.37-37.97,44.76-63.85c55.09-31.59,24.31-86.19-20.83-59.82,0,0-55.72,42.4-23.93,123.67h0Z"/><path class="cls-1" d="M130.65,172.82s-37.97,.37-63.85-44.76c-31.59-55.09-86.19-24.31-59.82,20.83,0,0,42.41,55.72,123.67,23.93h0Z"/><path class="cls-1" d="M172.32,135.03s.37,37.97-44.76,63.85c-55.09,31.59-24.31,86.19,20.83,59.82,0,0,55.72-42.4,23.93-123.67h0Z"/><path class="cls-1" d="M136.28,92.26s37.97-.37,63.85,44.76c31.59,55.09,86.19,24.31,59.82-20.83,0,0-42.41-55.72-123.67-23.93h0Z"/></svg>